#!OML:ASF F:\VICON\USERDATA\INSTALL\rory3\rory3.ASF
:FULLY-SPECIFIED
:DEGREES
1858
root 11.8286 17.7615 1.01832 17.4265 -18.9815 9.36276
lowerback 14.075 1.32968 -0.89343
upperback 6.97362 1.69341 7.00896
thorax -0.747996 0.675206 7.69555
lowerneck -8.10991 -9.28148 -9.2819
upperneck 30.1114 -14.6827 10.1215
head 12.8518 -6.38362 3.39979
rclavicle 1.43125e-014 3.49861e-014
rhumerus 18.2163 -14.0748 -89.4212
rradius 28.1045
rwrist -10.355
rhand -27.5422 -25.1406
rfingers 7.12502
rthumb -0.943808 -55.1183
lclavicle 1.43125e-014 3.49861e-014
lhumerus -26.5344 -47.9603 104.407
lradius 74.5182
lwrist 78.5047
lhand -13.9451 59.0033
lfingers 7.12502
lthumb 12.1821 -631.371
rfemur -37.2094 -8.71751 20.359
rtibia 40.3067
rfoot -27.6764 -13.201
rtoes 10.5732
lfemur -36.0699 -7.50591 -17.9469
ltibia 24.8724
lfoot -13.7714 -7.81166
ltoes -28.3323
1859
root 11.8059 17.7615 1.05328 17.1011 -18.6724 9.49016
lowerback 14.2685 1.57366 -0.793853
upperback 7.02459 2.03129 7.15834
thorax -0.84632 0.844783 7.74749
lowerneck -7.79289 -9.61724 -9.46639
upperneck 29.8319 -15.1202 10.1764
head 12.7487 -6.60007 3.38959
rclavicle 1.59028e-014 -4.77083e-014
rhumerus 17.423 -13.6885 -90.1859
rradius 27.8534
rwrist -10.6643
rhand -27.9968 -25.2816
rfingers 7.12502
rthumb -1.38283 -55.2568
lclavicle 1.59028e-014 -4.77083e-014
lhumerus -27.6531 -47.1105 104.372
lradius 74.7361
lwrist 78.2558
lhand -13.8543 59.5956
lfingers 7.12502
lthumb 12.2696 -630.784
rfemur -36.6386 -8.73348 20.1691
rtibia 40.2675
rfoot -28.0182 -13.3113
rtoes 10.7226
lfemur -36.1909 -7.55963 -18.4948
ltibia 24.2767
lfoot -13.6103 -7.79508
ltoes -27.4602
1860
root 11.7841 17.7585 1.08423 16.9301 -18.2915 9.51712
lowerback 14.3291 1.78034 -0.6206
upperback 7.03132 2.33044 7.36164
thorax -0.914839 0.99636 7.8211
lowerneck -7.42861 -9.93791 -9.81614
upperneck 29.6191 -15.5553 10.345
head 12.6928 -6.82159 3.45397
rclavicle -1.59028e-015 -4.77083e-014
rhumerus 16.5614 -13.0357 -90.7588
rradius 27.6225
rwrist -11.3458
rhand -28.5551 -24.7418
rfingers 7.12502
rthumb -1.92199 -54.7129
lclavicle -1.59028e-015 -4.77083e-014
lhumerus -28.7809 -46.2929 104.358
lradius 74.9754
lwrist 77.7761
lhand -13.8833 60.6289
lfingers 7.12502
lthumb 12.2416 -810.251
rfemur -36.2188 -8.72361 20.1225
rtibia 40.2374
rfoot -28.3022 -13.5492
rtoes 10.4132
lfemur -36.4709 -7.60758 -18.9195
ltibia 23.6874
lfoot -13.4305 -7.93822
ltoes -27.0484
1861
root 11.7554 17.7525 1.11487 16.6333 -17.9257 9.36631
lowerback 14.4883 2.00164 -0.377043
upperback 7.17687 2.65009 7.58046
thorax -0.889159 1.15349 7.86762
lowerneck -7.16992 -10.2647 -10.0717
upperneck 29.3292 -16.0158 10.5678
head 12.6301 -7.03684 3.51247
rclavicle -1.59028e-014 -1.27222e-014
rhumerus 15.8387 -12.4239 -91.4276
rradius 27.3535
rwrist -12.312
rhand -28.7961 -24.0307
rfingers 7.12502
rthumb -2.15478 -53.9995
lclavicle -1.59028e-014 -1.27222e-014
lhumerus -30.2174 -46.5467 104.629
lradius 75.0676
lwrist 79.0209
lhand -17.2522 58.9089
lfingers 7.12502
lthumb 8.99202 -631.303
rfemur -35.6291 -8.46678 20.2364
rtibia 40.2469
rfoot -28.5339 -14.0693
rtoes 9.57164
lfemur -36.5369 -7.69699 -19.0949
ltibia 23.0554
lfoot -13.0922 -8.16763
ltoes -25.9723
1862
root 11.7267 17.7459 1.14968 16.3296 -17.5183 9.34558
lowerback 14.598 2.25345 -0.153171
upperback 7.32631 3.00476 7.73296
thorax -0.835322 1.32891 7.84696
lowerneck -6.97799 -10.6616 -10.0509
upperneck 28.9881 -16.5658 10.6417
head 12.5311 -7.27659 3.45044
rclavicle -4.29375e-014 -4.13472e-014
rhumerus 15.1173 -12.0228 -92.1384
rradius 27.1398
rwrist -13.1343
rhand -28.8539 -23.8776
rfingers 7.12502
rthumb -2.21056 -53.8458
lclavicle -4.29375e-014 -4.13472e-014
lhumerus -30.6922 -46.0022 103.9
lradius 75.1672
lwrist 77.8817
lhand -15.7299 58.9694
lfingers 7.12502
lthumb 10.4607 -631.311
rfemur -35.0778 -8.41715 20.2519
rtibia 40.306
rfoot -28.8747 -14.3171
rtoes 9.35595
lfemur -36.5958 -7.73831 -19.4727
ltibia 22.4182
lfoot -12.6632 -8.72333
ltoes -24.5635
1863
root 11.7087 17.7432 1.18174 16.2451 -17.0459 9.66183
lowerback 14.4617 2.44813 -0.0963083
upperback 7.34404 3.26592 7.8287
thorax -0.782391 1.45966 7.8794
lowerneck -6.87023 -11.0592 -10.1068
upperneck 28.8215 -17.0828 10.5855
head 12.5111 -7.51502 3.35448
rclavicle 5.08889e-014 -4.77083e-014
rhumerus 14.4048 -11.6336 -92.8575
rradius 26.9702
rwrist -13.645
rhand -28.7812 -24.0314
rfingers 7.12502
rthumb -2.14039 -54.0004
lclavicle 5.08889e-014 -4.77083e-014
lhumerus -31.6178 -45.5775 103.653
lradius 75.3191
lwrist 77.2165
lhand -16.1216 58.2502
lfingers 7.12502
lthumb 10.0828 -632.011
rfemur -34.8826 -8.91029 20.0161
rtibia 40.4005
rfoot -29.126 -14.1046
rtoes 9.52681
lfemur -36.9262 -7.85201 -20.2617
ltibia 21.7264
lfoot -12.2598 -9.3866
ltoes -24.5636
1864
root 11.6934 17.7361 1.21289 16.1394 -16.6066 9.78333
lowerback 14.4653 2.67157 0.0741018
upperback 7.36182 3.58424 7.99939
thorax -0.809848 1.62092 7.91544
lowerneck -6.78543 -11.4584 -10.1274
upperneck 28.6907 -17.5807 10.4282
head 12.4922 -7.75021 3.21717
rclavicle -3.18055e-015 4.13472e-014
rhumerus 13.6782 -11.1393 -93.4758
rradius 26.8694
rwrist -14.4002
rhand -28.6091 -23.8522
rfingers 7.12502
rthumb -1.97421 -53.8228
lclavicle -3.18055e-015 4.13472e-014
lhumerus -32.6928 -45.0553 103.602
lradius 75.4722
lwrist 76.9395
lhand -15.4168 59.0404
lfingers 7.12502
lthumb 10.7627 -631.255
rfemur -34.6079 -9.2916 19.9288
rtibia 40.5064
rfoot -29.3085 -13.865
rtoes 9.53289
lfemur -37.1305 -7.72593 -20.9628
ltibia 20.9655
lfoot -11.6838 -10.3501
ltoes -24.6619
1865
root 11.6722 17.726 1.24716 15.913 -16.1317 9.73235
lowerback 14.6889 2.92807 0.296729
upperback 7.37046 3.96425 8.26206
thorax -0.975126 1.81452 8.00419
lowerneck -6.44567 -11.8466 -10.1133
upperneck 28.348 -18.0645 10.3055
head 12.3317 -7.99073 3.10552
rclavicle -3.81667e-014 6.36111e-015
rhumerus 12.8409 -10.6406 -93.9447
rradius 26.7833
rwrist -15.3464
rhand -28.6384 -23.6125
rfingers 7.12502
rthumb -2.00252 -53.5828
lclavicle -3.81667e-014 6.36111e-015
lhumerus -33.6568 -44.5499 103.462
lradius 75.607
lwrist 76.8928
lhand -15.7283 58.4272
lfingers 7.12502
lthumb 10.4623 -631.853
rfemur -34.2104 -9.37885 19.9515
rtibia 40.6034
rfoot -29.4146 -14.1695
rtoes 8.6977
lfemur -37.1138 -7.59453 -21.4657
ltibia 20.2086
lfoot -10.9226 -11.4928
ltoes -24.6248
1866
root 11.6505 17.7178 1.28279 15.713 -15.7595 9.70701
lowerback 14.8786 3.16201 0.419706
upperback 7.33868 4.30582 8.51703
thorax -1.16686 1.98833 8.14714
lowerneck -5.91299 -12.1484 -10.392
upperneck 28.0074 -18.471 10.4448
head 12.1879 -8.20941 3.16244
rclavicle 1.59028e-014 -9.54166e-015
rhumerus 11.9497 -10.0144 -94.482
rradius 26.6488
rwrist -16.1599
rhand -28.8793 -23.7839
rfingers 7.12502
rthumb -2.23518 -53.7519
lclavicle 1.59028e-014 -9.54166e-015
lhumerus -34.6962 -43.9146 103.354
lradius 75.8239
lwrist 76.8085
lhand -15.6656 58.776
lfingers 7.12502
lthumb 10.5227 -631.507
rfemur -33.8565 -9.4466 19.9626
rtibia 40.686
rfoot -29.5967 -14.3952
rtoes 8.24426
lfemur -37.0948 -7.69904 -21.8463
ltibia 19.4887
lfoot -10.1753 -12.3949
ltoes -24.8912
1867
root 11.6334 17.7082 1.3195 15.5771 -15.4873 9.66165
lowerback 14.9378 3.41368 0.600722
upperback 7.37921 4.66412 8.7141
thorax -1.20719 2.16831 8.19499
lowerneck -5.74584 -12.4735 -10.5723
upperneck 27.8782 -18.906 10.4894
head 12.1873 -8.4174 3.14152
rclavicle -5.40694e-014 3.18055e-015
rhumerus 11.2548 -9.34212 -95.1576
rradius 26.6363
rwrist -17.1226
rhand -29.2149 -24.4157
rfingers 7.12502
rthumb -2.55925 -54.3801
lclavicle -5.40694e-014 3.18055e-015
lhumerus -35.5745 -43.3408 103.092
lradius 76.0913
lwrist 76.5196
lhand -14.9704 60.2456
lfingers 7.12502
lthumb 11.1933 -630.073
rfemur -33.4895 -9.66794 20.0493
rtibia 40.7545
rfoot -29.9009 -14.1056
rtoes 8.79032
lfemur -37.1158 -7.70822 -22.2362
ltibia 18.7817
lfoot -9.37205 -13.4183
ltoes -25.1956
